<svg xmlns="http://www.w3.org/2000/svg" width="200" viewBox="0 0 375 375" height="305" version="1.0"><path fill="#FFF" d="M 139.589844 123.722656 L 117.980469 123.722656 L 117.980469 149.972656 L 120.136719 149.972656 L 120.136719 125.878906 L 144.230469 125.878906 L 144.230469 123.722656 L 139.589844 123.722656"/><path fill="#FFF" d="M 235.402344 251.273438 L 257.015625 251.273438 L 257.015625 225.023438 L 254.855469 225.023438 L 254.855469 249.113281 L 230.765625 249.113281 L 230.765625 251.273438 L 235.402344 251.273438"/><path fill="#FFF" d="M 257.015625 145.332031 L 257.015625 123.722656 L 230.765625 123.722656 L 230.765625 125.878906 L 254.855469 125.878906 L 254.855469 149.972656 L 257.015625 149.972656 L 257.015625 145.332031"/><path fill="#FFF" d="M 117.980469 229.660156 L 117.980469 251.273438 L 144.230469 251.273438 L 144.230469 249.113281 L 120.136719 249.113281 L 120.136719 225.023438 L 117.980469 225.023438 L 117.980469 229.660156"/><path fill="#F00" d="M 237.785156 137.414062 C 234.679688 137.414062 232.160156 139.929688 232.160156 143.039062 C 232.160156 146.144531 234.679688 148.664062 237.785156 148.664062 C 240.890625 148.664062 243.410156 146.144531 243.410156 143.039062 C 243.410156 139.929688 240.890625 137.414062 237.785156 137.414062"/><g fill="#FFF"><g><g><path d="M 6.546875 -2.25 C 7.085938 -2.25 7.53125 -2.328125 7.875 -2.484375 C 8.21875 -2.648438 8.484375 -2.867188 8.671875 -3.140625 C 8.867188 -3.421875 9.003906 -3.742188 9.078125 -4.109375 C 9.148438 -4.472656 9.1875 -4.847656 9.1875 -5.234375 L 9.1875 -5.609375 L 11.984375 -5.609375 L 11.984375 -5.234375 C 11.984375 -3.460938 11.519531 -2.097656 10.59375 -1.140625 C 9.664062 -0.179688 8.316406 0.296875 6.546875 0.296875 C 4.847656 0.296875 3.5 -0.21875 2.5 -1.25 C 1.507812 -2.289062 1.015625 -3.800781 1.015625 -5.78125 L 1.015625 -9.09375 C 1.015625 -10.039062 1.140625 -10.894531 1.390625 -11.65625 C 1.648438 -12.414062 2.019531 -13.050781 2.5 -13.5625 C 2.988281 -14.082031 3.570312 -14.476562 4.25 -14.75 C 4.925781 -15.03125 5.691406 -15.171875 6.546875 -15.171875 C 7.421875 -15.171875 8.195312 -15.039062 8.875 -14.78125 C 9.5625 -14.53125 10.132812 -14.164062 10.59375 -13.6875 C 11.050781 -13.207031 11.394531 -12.625 11.625 -11.9375 C 11.863281 -11.257812 11.984375 -10.492188 11.984375 -9.640625 L 11.984375 -9.265625 L 9.1875 -9.265625 L 9.1875 -9.640625 C 9.1875 -9.992188 9.140625 -10.347656 9.046875 -10.703125 C 8.960938 -11.054688 8.820312 -11.375 8.625 -11.65625 C 8.425781 -11.945312 8.15625 -12.179688 7.8125 -12.359375 C 7.476562 -12.535156 7.054688 -12.625 6.546875 -12.625 C 6.078125 -12.625 5.671875 -12.535156 5.328125 -12.359375 C 4.992188 -12.179688 4.710938 -11.9375 4.484375 -11.625 C 4.253906 -11.320312 4.085938 -10.96875 3.984375 -10.5625 C 3.878906 -10.164062 3.828125 -9.75 3.828125 -9.3125 L 3.828125 -5.5625 C 3.828125 -5.082031 3.875 -4.640625 3.96875 -4.234375 C 4.070312 -3.835938 4.226562 -3.488281 4.4375 -3.1875 C 4.65625 -2.882812 4.9375 -2.648438 5.28125 -2.484375 C 5.625 -2.328125 6.046875 -2.25 6.546875 -2.25 Z M 6.546875 -2.25" transform="translate(130.975 182.625)"/></g></g></g><g fill="#FFF"><g><g><path d="M 1.015625 -9.09375 C 1.015625 -11.019531 1.5 -12.515625 2.46875 -13.578125 C 3.445312 -14.640625 4.789062 -15.171875 6.5 -15.171875 C 8.21875 -15.171875 9.5625 -14.640625 10.53125 -13.578125 C 11.5 -12.515625 11.984375 -11.019531 11.984375 -9.09375 L 11.984375 -5.78125 C 11.984375 -3.800781 11.5 -2.289062 10.53125 -1.25 C 9.5625 -0.21875 8.21875 0.296875 6.5 0.296875 C 4.789062 0.296875 3.445312 -0.21875 2.46875 -1.25 C 1.5 -2.289062 1.015625 -3.800781 1.015625 -5.78125 Z M 6.5 -2.25 C 7.007812 -2.25 7.429688 -2.328125 7.765625 -2.484375 C 8.109375 -2.648438 8.382812 -2.882812 8.59375 -3.1875 C 8.8125 -3.488281 8.960938 -3.84375 9.046875 -4.25 C 9.140625 -4.65625 9.1875 -5.109375 9.1875 -5.609375 L 9.1875 -9.265625 C 9.1875 -9.734375 9.132812 -10.171875 9.03125 -10.578125 C 8.925781 -10.992188 8.769531 -11.347656 8.5625 -11.640625 C 8.351562 -11.941406 8.078125 -12.179688 7.734375 -12.359375 C 7.390625 -12.535156 6.976562 -12.625 6.5 -12.625 C 6.019531 -12.625 5.609375 -12.535156 5.265625 -12.359375 C 4.929688 -12.179688 4.65625 -11.941406 4.4375 -11.640625 C 4.226562 -11.347656 4.070312 -10.992188 3.96875 -10.578125 C 3.875 -10.171875 3.828125 -9.734375 3.828125 -9.265625 L 3.828125 -5.609375 C 3.828125 -5.109375 3.867188 -4.65625 3.953125 -4.25 C 4.035156 -3.84375 4.179688 -3.488281 4.390625 -3.1875 C 4.609375 -2.882812 4.882812 -2.648438 5.21875 -2.484375 C 5.5625 -2.328125 5.988281 -2.25 6.5 -2.25 Z M 6.5 -2.25" transform="translate(143.978 182.625)"/></g></g></g><g fill="#FFF"><g><g><path d="M 0.984375 -14.875 L 6.375 -14.875 C 8.21875 -14.875 9.582031 -14.441406 10.46875 -13.578125 C 11.363281 -12.722656 11.8125 -11.398438 11.8125 -9.609375 L 11.8125 -5.265625 C 11.8125 -3.472656 11.363281 -2.144531 10.46875 -1.28125 C 9.582031 -0.425781 8.21875 0 6.375 0 L 0.984375 0 L 0.984375 -2.703125 L 2.375 -2.703125 L 2.375 -12.203125 L 0.984375 -12.203125 Z M 6.375 -2.671875 C 7.351562 -2.671875 8.035156 -2.898438 8.421875 -3.359375 C 8.816406 -3.828125 9.015625 -4.550781 9.015625 -5.53125 L 9.015625 -9.609375 C 9.015625 -10.453125 8.816406 -11.09375 8.421875 -11.53125 C 8.035156 -11.976562 7.351562 -12.203125 6.375 -12.203125 L 5.1875 -12.203125 L 5.1875 -2.671875 Z M 6.375 -2.671875" transform="translate(156.98 182.625)"/></g></g></g><g fill="#FFF"><g><g><path d="M 1.75 -14.875 L 11.140625 -14.875 L 11.140625 -12.203125 L 4.546875 -12.203125 L 4.546875 -8.796875 L 10.875 -8.796875 L 10.875 -6.125 L 4.546875 -6.125 L 4.546875 -2.671875 L 11.390625 -2.671875 L 11.390625 0 L 1.75 0 Z M 1.75 -14.875" transform="translate(169.983 182.625)"/></g></g></g><g fill="#FFF"><g><g><path d="M 9.046875 -10.328125 C 9.046875 -10.921875 8.816406 -11.4375 8.359375 -11.875 C 7.898438 -12.3125 7.253906 -12.53125 6.421875 -12.53125 C 5.710938 -12.53125 5.148438 -12.382812 4.734375 -12.09375 C 4.328125 -11.8125 4.125 -11.421875 4.125 -10.921875 C 4.125 -10.671875 4.171875 -10.441406 4.265625 -10.234375 C 4.367188 -10.023438 4.539062 -9.835938 4.78125 -9.671875 C 5.03125 -9.515625 5.359375 -9.367188 5.765625 -9.234375 C 6.171875 -9.109375 6.6875 -8.988281 7.3125 -8.875 C 8.863281 -8.59375 10.050781 -8.117188 10.875 -7.453125 C 11.695312 -6.785156 12.109375 -5.800781 12.109375 -4.5 L 12.109375 -4.25 C 12.109375 -3.550781 11.984375 -2.921875 11.734375 -2.359375 C 11.492188 -1.804688 11.140625 -1.332031 10.671875 -0.9375 C 10.203125 -0.539062 9.632812 -0.234375 8.96875 -0.015625 C 8.300781 0.191406 7.550781 0.296875 6.71875 0.296875 C 5.738281 0.296875 4.875 0.160156 4.125 -0.109375 C 3.382812 -0.390625 2.765625 -0.773438 2.265625 -1.265625 C 1.773438 -1.753906 1.398438 -2.328125 1.140625 -2.984375 C 0.890625 -3.640625 0.765625 -4.359375 0.765625 -5.140625 L 0.765625 -5.78125 L 3.5625 -5.78125 L 3.5625 -5.265625 C 3.5625 -4.378906 3.820312 -3.671875 4.34375 -3.140625 C 4.863281 -2.609375 5.664062 -2.34375 6.75 -2.34375 C 7.601562 -2.34375 8.234375 -2.523438 8.640625 -2.890625 C 9.054688 -3.253906 9.265625 -3.691406 9.265625 -4.203125 C 9.265625 -4.441406 9.222656 -4.671875 9.140625 -4.890625 C 9.054688 -5.117188 8.90625 -5.320312 8.6875 -5.5 C 8.476562 -5.675781 8.1875 -5.832031 7.8125 -5.96875 C 7.445312 -6.113281 6.984375 -6.234375 6.421875 -6.328125 C 5.671875 -6.460938 4.984375 -6.628906 4.359375 -6.828125 C 3.734375 -7.035156 3.191406 -7.304688 2.734375 -7.640625 C 2.273438 -7.984375 1.914062 -8.410156 1.65625 -8.921875 C 1.40625 -9.429688 1.28125 -10.054688 1.28125 -10.796875 L 1.28125 -10.921875 C 1.28125 -11.535156 1.398438 -12.097656 1.640625 -12.609375 C 1.890625 -13.128906 2.238281 -13.578125 2.6875 -13.953125 C 3.132812 -14.335938 3.671875 -14.632812 4.296875 -14.84375 C 4.929688 -15.0625 5.640625 -15.171875 6.421875 -15.171875 C 7.296875 -15.171875 8.070312 -15.046875 8.75 -14.796875 C 9.4375 -14.546875 10.007812 -14.207031 10.46875 -13.78125 C 10.925781 -13.363281 11.269531 -12.878906 11.5 -12.328125 C 11.738281 -11.773438 11.859375 -11.191406 11.859375 -10.578125 L 11.859375 -9.8125 L 9.046875 -9.8125 Z M 9.046875 -10.328125" transform="translate(195.988 182.625)"/></g></g></g><g fill="#FFF"><g><g><path d="M 9.03125 -3.1875 L 3.96875 -3.1875 L 3.25 0 L 0.3125 0 L 3.875 -14.875 L 9.140625 -14.875 L 12.6875 0 L 9.75 0 Z M 4.5625 -5.859375 L 8.421875 -5.859375 L 6.6875 -13.46875 L 6.3125 -13.46875 Z M 4.5625 -5.859375" transform="translate(208.99 182.625)"/></g></g></g><g fill="#FFF"><g><g><path d="M 0.515625 -14.875 L 3.40625 -14.875 L 6.3125 -1.40625 L 6.6875 -1.40625 L 9.609375 -14.875 L 12.5 -14.875 L 9.140625 0 L 3.875 0 Z M 0.515625 -14.875" transform="translate(221.994 182.625)"/></g></g></g><g fill="#FFF"><g><g><path d="M 1.75 -14.875 L 11.140625 -14.875 L 11.140625 -12.203125 L 4.546875 -12.203125 L 4.546875 -8.796875 L 10.875 -8.796875 L 10.875 -6.125 L 4.546875 -6.125 L 4.546875 -2.671875 L 11.390625 -2.671875 L 11.390625 0 L 1.75 0 Z M 1.75 -14.875" transform="translate(234.996 182.625)"/></g></g></g><g fill="#FFF"><g><g><path d="M 1.09375 -14.171875 L 11.296875 -14.171875 L 11.296875 -11.625 L 7.53125 -11.625 L 7.53125 0 L 4.859375 0 L 4.859375 -11.625 L 1.09375 -11.625 Z M 1.09375 -14.171875" transform="translate(132.69 200.305)"/></g></g></g><g fill="#FFF"><g><g><path d="M 1.234375 -14.171875 L 3.90625 -14.171875 L 3.90625 -8.390625 L 8.484375 -8.390625 L 8.484375 -14.171875 L 11.15625 -14.171875 L 11.15625 0 L 8.484375 0 L 8.484375 -5.828125 L 3.90625 -5.828125 L 3.90625 0 L 1.234375 0 Z M 1.234375 -14.171875" transform="translate(145.082 200.305)"/></g></g></g><g fill="#FFF"><g><g><path d="M 1.65625 -14.171875 L 10.609375 -14.171875 L 10.609375 -11.625 L 4.328125 -11.625 L 4.328125 -8.390625 L 10.375 -8.390625 L 10.375 -5.828125 L 4.328125 -5.828125 L 4.328125 -2.546875 L 10.859375 -2.546875 L 10.859375 0 L 1.65625 0 Z M 1.65625 -14.171875" transform="translate(157.475 200.305)"/></g></g></g><g fill="#FFF"><g><g><path d="M 4.921875 0.15625 C 3.660156 -0.0703125 2.6875 -0.664062 2 -1.625 C 1.3125 -2.582031 0.96875 -3.878906 0.96875 -5.515625 L 0.96875 -8.671875 C 0.96875 -10.503906 1.429688 -11.925781 2.359375 -12.9375 C 3.285156 -13.945312 4.566406 -14.453125 6.203125 -14.453125 C 7.828125 -14.453125 9.101562 -13.945312 10.03125 -12.9375 C 10.957031 -11.925781 11.421875 -10.503906 11.421875 -8.671875 L 11.421875 -5.515625 C 11.421875 -3.878906 11.070312 -2.582031 10.375 -1.625 C 9.675781 -0.664062 8.707031 -0.0703125 7.46875 0.15625 L 7.46875 0.53125 C 7.46875 0.90625 7.640625 1.09375 7.984375 1.09375 L 9.234375 1.09375 L 9.234375 3.53125 L 6.84375 3.53125 C 6.289062 3.53125 5.832031 3.34375 5.46875 2.96875 C 5.101562 2.59375 4.921875 2.128906 4.921875 1.578125 Z M 6.203125 -2.140625 C 6.679688 -2.140625 7.082031 -2.21875 7.40625 -2.375 C 7.726562 -2.539062 7.988281 -2.765625 8.1875 -3.046875 C 8.394531 -3.335938 8.539062 -3.679688 8.625 -4.078125 C 8.707031 -4.472656 8.75 -4.910156 8.75 -5.390625 L 8.75 -8.78125 C 8.75 -9.226562 8.703125 -9.644531 8.609375 -10.03125 C 8.515625 -10.425781 8.363281 -10.769531 8.15625 -11.0625 C 7.957031 -11.363281 7.695312 -11.597656 7.375 -11.765625 C 7.050781 -11.941406 6.660156 -12.03125 6.203125 -12.03125 C 5.742188 -12.03125 5.347656 -11.941406 5.015625 -11.765625 C 4.691406 -11.597656 4.425781 -11.363281 4.21875 -11.0625 C 4.019531 -10.769531 3.875 -10.425781 3.78125 -10.03125 C 3.6875 -9.644531 3.640625 -9.226562 3.640625 -8.78125 L 3.640625 -5.390625 C 3.640625 -4.910156 3.679688 -4.472656 3.765625 -4.078125 C 3.847656 -3.679688 3.988281 -3.335938 4.1875 -3.046875 C 4.394531 -2.765625 4.660156 -2.539062 4.984375 -2.375 C 5.304688 -2.21875 5.710938 -2.140625 6.203125 -2.140625 Z M 6.203125 -2.140625" transform="translate(132.69 222.055)"/></g></g></g><g fill="#FFF"><g><g><path d="M 11.296875 -14.171875 L 11.296875 -4.90625 C 11.296875 -3.28125 10.867188 -2.007812 10.015625 -1.09375 C 9.160156 -0.175781 7.890625 0.28125 6.203125 0.28125 C 4.515625 0.28125 3.238281 -0.175781 2.375 -1.09375 C 1.519531 -2.007812 1.09375 -3.28125 1.09375 -4.90625 L 1.09375 -14.171875 L 3.765625 -14.171875 L 3.765625 -4.90625 C 3.765625 -4.0625 3.957031 -3.40625 4.34375 -2.9375 C 4.738281 -2.46875 5.359375 -2.234375 6.203125 -2.234375 C 7.035156 -2.234375 7.644531 -2.46875 8.03125 -2.9375 C 8.425781 -3.40625 8.625 -4.0625 8.625 -4.90625 L 8.625 -14.171875 Z M 11.296875 -14.171875" transform="translate(145.082 222.055)"/></g></g></g><g fill="#FFF"><g><g><path d="M 1.65625 -14.171875 L 10.609375 -14.171875 L 10.609375 -11.625 L 4.328125 -11.625 L 4.328125 -8.390625 L 10.375 -8.390625 L 10.375 -5.828125 L 4.328125 -5.828125 L 4.328125 -2.546875 L 10.859375 -2.546875 L 10.859375 0 L 1.65625 0 Z M 1.65625 -14.171875" transform="translate(157.475 222.055)"/></g></g></g><g fill="#FFF"><g><g><path d="M 1.65625 -14.171875 L 10.609375 -14.171875 L 10.609375 -11.625 L 4.328125 -11.625 L 4.328125 -8.390625 L 10.375 -8.390625 L 10.375 -5.828125 L 4.328125 -5.828125 L 4.328125 -2.546875 L 10.859375 -2.546875 L 10.859375 0 L 1.65625 0 Z M 1.65625 -14.171875" transform="translate(169.868 222.055)"/></g></g></g><g fill="#FFF"><g><g><path d="M 8.125 -1.34375 L 8.484375 -1.34375 L 8.484375 -14.171875 L 11.15625 -14.171875 L 11.15625 0 L 5.9375 0 L 4.265625 -12.84375 L 3.90625 -12.84375 L 3.90625 0 L 1.234375 0 L 1.234375 -14.171875 L 6.453125 -14.171875 Z M 8.125 -1.34375" transform="translate(182.261 222.055)"/></g></g></g></svg>